# xmcd
#
# Track frame offsets:
#	150
#	17045
#	31890
#	56575
#	70895
#	87472
#	109462
#	137420
#	157082
#	173817
#	192430
#	212880
#	239585
#	257362
#
# Disc length: 3688 seconds
#
# Revision: 1
# Processed by: cddbd v1.4PL0 Copyright (c) Steve Scherf et al.
# Submitted via: EasyCDDAExtractor 6.0.0.1
#
DISCID=c80e660e
DTITLE=Frank Quintero - Frankamente Acústico Unplugged
DYEAR=1994
DGENRE=Latin Pop Ballad
TTITLE0=Elizabeth
TTITLE1=El Leñador
TTITLE2=Agua Dulce
TTITLE3=Ya No Somos Los Mismos
TTITLE4=Todo Pasará
TTITLE5=Canción Para Ti
TTITLE6=Miguel
TTITLE7=Sin Querer Evitarlo
TTITLE8=La Dama De La Ciudad
TTITLE9=Contigo
TTITLE10=Química
TTITLE11=Baila Conmigo
TTITLE12=Cuando Tú Me Miras
TTITLE13=Por Ese Amor
EXTD=YEAR: 1994 ID3G:  17 
EXTT0=
EXTT1=
EXTT2=
EXTT3=
EXTT4=
EXTT5=
EXTT6=
EXTT7=
EXTT8=
EXTT9=
EXTT10=
EXTT11=
EXTT12=
EXTT13=
PLAYORDER=
